<?xml version="1.0" encoding="UTF-8"?>
<svg version="1.1" xmlns="http://www.w3.org/2000/svg" width="530" height="540">
    <path d="M0 0 C337.92 0 675.84 0 1024 0 C1024 337.92 1024 675.84 1024 1024 C686.08 1024 348.16 1024 0 1024 C0 686.08 0 348.16 0 0 Z " fill="none" transform="translate(0,0)"/>
    <path d="M0 0 C2.13233303 0.00373799 4.2646678 0.00658124 6.39700317 0.00857544 C11.96340824 0.01615008 17.52970612 0.03574439 23.09606934 0.0579834 C28.79450023 0.07857596 34.49294873 0.08760562 40.19140625 0.09765625 C51.33859593 0.11899708 62.48567846 0.15412773 73.6328125 0.1953125 C73.6328125 8.7753125 73.6328125 17.3553125 73.6328125 26.1953125 C70.78342041 26.2046582 67.93402832 26.21400391 64.99829102 26.22363281 C55.52270925 26.25758906 46.04734101 26.31324007 36.57193089 26.37921524 C30.8339947 26.41851503 25.09620798 26.45078867 19.3581543 26.46630859 C13.80769765 26.48159124 8.25765239 26.51623946 2.70738029 26.56362152 C0.60303283 26.57831662 -1.50137341 26.58634659 -3.60577202 26.58719635 C-19.5042478 26.60005783 -34.37307572 28.01099366 -49.1171875 34.4453125 C-50.16048218 34.88919312 -50.16048218 34.88919312 -51.22485352 35.34204102 C-62.00264041 40.07330051 -71.408791 46.59612099 -80.3671875 54.1953125 C-81.05296875 54.74703125 -81.73875 55.29875 -82.4453125 55.8671875 C-94.90060803 66.16487278 -103.93850322 80.39435555 -110.6796875 94.9453125 C-110.99301025 95.59830322 -111.30633301 96.25129395 -111.62915039 96.92407227 C-118.93327194 113.45445262 -118.95153141 130.79773661 -118.90063477 148.52294922 C-118.90770611 151.13351933 -118.9164562 153.74408535 -118.92674255 156.35464478 C-118.9482172 162.66758044 -118.94829858 168.9803347 -118.94011701 175.29329477 C-118.93377818 180.43191753 -118.93498929 185.57048799 -118.94138908 190.70911026 C-118.94229074 191.4446938 -118.94319239 192.18027733 -118.94412137 192.93815128 C-118.94597286 194.43320505 -118.94783542 195.92825881 -118.94970893 197.42331256 C-118.96622994 211.39509141 -118.95761714 225.36676883 -118.94072335 239.33854152 C-118.92603336 252.07596485 -118.94065501 264.81315213 -118.96949352 277.55054508 C-118.99899898 290.68198122 -119.00982736 303.81330886 -119.00031132 316.94477665 C-118.99928894 318.43447882 -118.99829432 319.92418101 -118.9973278 321.41388321 C-118.99661322 322.51286951 -118.99661322 322.51286951 -118.9958842 323.63405754 C-118.99373463 328.75554048 -119.00344572 333.87691894 -119.01809883 338.99837875 C-119.0376141 345.91469018 -119.03035553 352.83055921 -119.00589943 359.74685287 C-119.00092834 362.27018013 -119.00428365 364.79354126 -119.01704788 367.31684113 C-119.16029078 398.09233679 -111.2036083 426.17084214 -91.3671875 450.1953125 C-90.56925781 451.16984375 -89.77132812 452.144375 -88.94921875 453.1484375 C-73.70960124 470.76276091 -54.62917562 482.05899526 -32.3671875 488.1953125 C-30.68109375 488.72511719 -30.68109375 488.72511719 -28.9609375 489.265625 C-21.44711751 491.20941756 -13.87459855 491.34404821 -6.14956665 491.34248352 C-4.66356038 491.34799855 -4.66356038 491.34799855 -3.14753377 491.353625 C0.15213782 491.36458492 3.45177784 491.36849255 6.75146484 491.37231445 C9.12587583 491.37858499 11.50028586 491.38523231 13.87469482 491.39222717 C20.98418265 491.41139138 28.09366687 491.42204604 35.20317405 491.43095496 C37.88756367 491.43446936 40.57195214 491.43861544 43.25634079 491.44279462 C55.11372716 491.46125354 66.97111356 491.47699987 78.82851219 491.48469257 C81.72437923 491.48660205 84.62024627 491.48852245 87.51611328 491.49047852 C88.59556817 491.49120413 88.59556817 491.49120413 89.69683023 491.4919444 C101.33615237 491.50023234 112.97537134 491.52555258 124.61464851 491.55805919 C136.59880871 491.59125273 148.58291669 491.60915234 160.56712306 491.61233681 C167.28189514 491.6144905 173.99649376 491.62352303 180.7112236 491.64879799 C187.03637962 491.67222291 193.36126648 491.67625425 199.68645477 491.66603661 C201.99412308 491.66554461 204.3018053 491.67176449 206.60943222 491.68559265 C224.05546404 491.78419581 240.68447499 490.3942763 256.9453125 483.5078125 C257.77087646 483.1667749 258.59644043 482.8257373 259.44702148 482.47436523 C288.66209963 469.97064091 309.5332493 446.01310526 321.87890625 417.296875 C322.91138586 414.62126637 323.77485495 411.93196858 324.6328125 409.1953125 C324.97195427 408.17175124 325.31109604 407.14818998 325.66051483 406.09361172 C329.49028586 393.03078713 329.19684945 380.10711766 329.15039062 366.58813477 C329.15581944 363.9237174 329.16280353 361.25934433 329.17163086 358.59494019 C329.18930564 352.14369591 329.18562568 345.69263905 329.1739803 339.24138779 C329.16490157 333.99209092 329.16374102 328.74284612 329.16807556 323.49354362 C329.16899496 322.36764739 329.16899496 322.36764739 329.16993293 321.21900577 C329.17121199 319.69358674 329.17250885 318.16816771 329.1738233 316.64274871 C329.18519695 302.37872998 329.1721665 288.11481451 329.15062183 273.85081273 C329.13275743 261.64617699 329.13585576 249.44169353 329.15429688 237.23706055 C329.175767 223.0213777 329.18409478 208.80578511 329.17184782 194.59008831 C329.1705738 193.07035793 329.16931631 191.55062754 329.16807556 190.03089714 C329.16745846 189.28340695 329.16684136 188.53591675 329.16620556 187.76577534 C329.16277074 182.53121669 329.16854043 177.2967159 329.17799377 172.06216621 C329.18928391 165.67079531 329.1860282 159.27962056 329.1648708 152.88827176 C329.15445294 149.63537453 329.15227899 146.38286527 329.16346741 143.12996101 C329.25937555 112.39489862 321.69198983 85.18244015 299.92578125 62.453125 C299.16910156 61.70804687 298.41242188 60.96296875 297.6328125 60.1953125 C296.38951172 58.95394531 296.38951172 58.95394531 295.12109375 57.6875 C281.96410601 45.12593798 265.66444748 36.35087016 248.6328125 30.1953125 C248.71845459 30.77909668 248.80409668 31.36288086 248.89233398 31.96435547 C249.28731393 34.6660076 249.67882697 37.36815188 250.0703125 40.0703125 C250.20501953 40.988125 250.33972656 41.9059375 250.47851562 42.8515625 C251.70367923 51.33806158 252.78669201 59.73063902 252.6953125 68.3203125 C252.68628906 69.43664062 252.67726563 70.55296875 252.66796875 71.703125 C252.65056641 72.93675781 252.65056641 72.93675781 252.6328125 74.1953125 C236.22881753 58.67111656 225.43915659 28.77795476 224.5234375 6.5390625 C224.51038283 4.42420519 224.56350883 2.30907429 224.6328125 0.1953125 C231.0079506 0.02988975 236.77262966 0.51946947 243.0078125 1.8203125 C243.86995361 1.99852539 244.73209473 2.17673828 245.62036133 2.36035156 C283.69431848 10.55844198 316.04682455 31.44275817 337.6328125 64.1953125 C350.91935416 84.7826679 358.7951609 109.15942735 358.77325439 133.70823669 C358.77771108 135.27826788 358.77771108 135.27826788 358.7822578 136.88001686 C358.79091744 140.38152655 358.79245079 143.88300194 358.79394531 147.38452148 C358.79857574 149.898306 358.8036007 152.41208981 358.80899048 154.9258728 C358.82210233 161.7553646 358.82859556 168.58484517 358.83300114 175.41434741 C358.83577117 179.689589 358.84001015 183.96482836 358.84450531 188.24006844 C358.85669968 200.10503084 358.86699517 211.96999145 358.8703804 223.83495998 C358.87059997 224.59378796 358.87081953 225.35261593 358.87104575 226.1344387 C358.87126403 226.8949825 358.87148231 227.65552631 358.8717072 228.4391169 C358.87215065 229.98000046 358.87259721 231.52088402 358.87304688 233.06176758 C358.8732683 233.82608284 358.87348973 234.59039811 358.87371787 235.37787444 C358.87765349 247.72200863 358.89506879 260.06608334 358.9184064 272.41019463 C358.94224028 285.12091394 358.95458787 297.8316036 358.95574832 310.54234558 C358.95665894 317.66359798 358.96225353 324.78477309 358.98056793 331.90600395 C358.99777761 338.62098715 358.99913264 345.33580028 358.99042892 352.05080795 C358.98966623 354.49666168 358.99389796 356.94252371 359.00388718 359.38835716 C359.18492329 406.53475797 346.81346313 445.63776138 313.21533203 479.62939453 C280.0523856 512.58742059 237.01388782 520.53110942 192.01367188 520.4699707 C189.84910407 520.47433285 187.68453781 520.4795209 185.51997375 520.48545837 C179.71211556 520.49869511 173.90432302 520.49944462 168.09645271 520.49689507 C163.21871796 520.4958153 158.34099597 520.50073392 153.46326399 520.5055005 C141.94408659 520.51654167 130.42494183 520.51706299 118.90576172 520.51098633 C107.08256706 520.50494464 95.25949135 520.51727507 83.43631697 520.5385564 C73.22499069 520.5562502 63.01370202 520.56216174 52.80236101 520.55891865 C46.72991724 520.55711876 40.65755844 520.55961163 34.58512878 520.57363319 C28.87210677 520.58633529 23.15926865 520.58415212 17.44624901 520.57122231 C15.36882143 520.56888405 13.29138037 520.57149028 11.21396828 520.57984543 C-20.50484378 520.69806475 -51.21833314 515.37695512 -78.3671875 498.1953125 C-79.01381348 497.79135254 -79.66043945 497.38739258 -80.32666016 496.97119141 C-89.61791588 491.07443055 -97.68749558 484.32787372 -105.4921875 476.5703125 C-106.27360107 475.79518311 -107.05501465 475.02005371 -107.86010742 474.22143555 C-113.02654332 468.94027659 -117.32334415 463.37124422 -121.3671875 457.1953125 C-122.45 455.54789063 -122.45 455.54789063 -123.5546875 453.8671875 C-125.53876019 450.66872548 -127.47019899 447.44621527 -129.3671875 444.1953125 C-129.94339844 443.20789063 -130.51960938 442.22046875 -131.11328125 441.203125 C-135.30504267 433.43916966 -138.25603044 425.33867493 -141.1171875 417.0078125 C-141.68264282 415.397854 -141.68264282 415.397854 -142.25952148 413.75537109 C-148.24162144 395.73016581 -148.80760974 377.68535592 -148.75537109 358.83984375 C-148.75944558 356.34573132 -148.76479233 353.85162069 -148.77130127 351.35751343 C-148.78347296 345.33314171 -148.78181332 339.30892622 -148.77306335 333.28456092 C-148.76624094 328.38099232 -148.76538956 323.47745506 -148.7686348 318.57388306 C-148.7690945 317.87145062 -148.76955419 317.16901819 -148.77002782 316.44529992 C-148.77098716 315.01756596 -148.77195981 313.589832 -148.7729456 312.16209805 C-148.78146552 298.82748585 -148.77171906 285.49293589 -148.7555445 272.1583339 C-148.74214442 260.75884512 -148.74447347 249.35944806 -148.75830078 237.95996094 C-148.77441704 224.66752334 -148.78064187 211.37514006 -148.77146399 198.08269405 C-148.77050851 196.66071003 -148.7695654 195.23872599 -148.7686348 193.81674194 C-148.76817197 193.11740801 -148.76770914 192.41807408 -148.76723229 191.69754821 C-148.76466046 186.80955197 -148.76897399 181.92159068 -148.77607346 177.03359985 C-148.7854495 170.43420053 -148.77861329 163.83494581 -148.76139069 157.23555374 C-148.75745746 154.82791044 -148.75850485 152.42025246 -148.76517868 150.0126152 C-148.86185345 111.56227257 -139.73633122 73.88763002 -111.9140625 45.7109375 C-111.07359375 44.88078125 -110.233125 44.050625 -109.3671875 43.1953125 C-108.160625 41.93654297 -108.160625 41.93654297 -106.9296875 40.65234375 C-89.61216643 22.78045082 -69.20973682 11.31029999 -45.3046875 4.4453125 C-44.28012451 4.14705566 -44.28012451 4.14705566 -43.23486328 3.84277344 C-28.91793137 -0.0566759 -14.71184755 -0.07643151 0 0 Z " fill="#E5E7E9" transform="translate(160, 10)"/>
    <path d="M0 0 C6.97829561 3.33157339 11.78258018 7.95714402 15 15 C16.03863024 18.12682368 16.50659023 20.7270856 16 24 C14.34206359 27.01114308 12.27219028 29.43918014 10 32 C8.63741936 34.72516127 8.8196811 36.96326507 8.75390625 40.01171875 C8.72248535 41.23753662 8.69106445 42.46335449 8.65869141 43.72631836 C8.61107666 45.68710327 8.61107666 45.68710327 8.5625 47.6875 C7.98219024 67.95979823 4.82343132 86.70290377 -1.125 106.125 C-1.51595853 107.41957706 -1.9065764 108.71425703 -2.296875 110.0090332 C-4.30188348 116.62846037 -6.38103956 123.21917412 -8.5546875 129.78515625 C-8.96444824 131.02958496 -9.37420898 132.27401367 -9.79638672 133.55615234 C-10.57586847 135.90787882 -11.3658992 138.25614583 -12.16845703 140.60009766 C-16.17354782 151.9126032 -16.17354782 151.9126032 -15.03198242 163.45605469 C-13.79053905 165.71627276 -12.41726117 167.84606219 -11 170 C-6.84285802 177.17135005 -4.74151332 182.17829824 -6.51171875 190.3671875 C-7.69422336 194.75544159 -9.23607781 198.50470465 -11.5 202.4375 C-14.0173217 207.2040263 -14.69271687 211.66864013 -15.375 216.9375 C-19.13537741 244.78246157 -35.43734274 269.50972743 -57.38671875 286.734375 C-60.82433874 289.31382158 -64.37398714 291.6947203 -68 294 C-68.62245605 294.39703125 -69.24491211 294.7940625 -69.88623047 295.203125 C-80.04880903 301.56344849 -90.48692925 305.73311125 -102 309 C-102.95132813 309.29040161 -102.95132813 309.29040161 -103.921875 309.58666992 C-121.12939385 314.47656063 -139.3416929 311.1272624 -154.9375 303.125 C-159.90693932 300.21863094 -164.83140891 296.99361319 -169 293 C-169 292.34 -169 291.68 -169 291 C-167.6996582 290.44856323 -167.6996582 290.44856323 -166.37304688 289.88598633 C-163.12039023 288.50282495 -159.87044084 287.11364064 -156.62207031 285.72045898 C-155.22269881 285.12171731 -153.82232657 284.52530843 -152.42089844 283.93139648 C-136.88935614 277.87159017 -136.88935614 277.87159017 -126.4375 265.625 C-120.21857978 254.57891792 -113.60756143 248.56357569 -101.22265625 244.875 C-94.96193176 243.2057249 -88.73069725 241.91010195 -82.3125 241 C-77.86356129 240.29975999 -74.99638186 239.59565823 -72 236 C-68.76085853 229.83020672 -69.16040362 221.93877765 -70.58203125 215.26953125 C-76.69860573 196.36121655 -91.32572147 181.3181515 -108.625 172.25 C-118.31736902 167.37357698 -128.7093298 163.96100959 -138.93408203 160.38769531 C-157.02931817 154.03526189 -171.91541603 146.2649604 -186 133 C-187.32721774 131.84708853 -188.66000741 130.70053851 -190 129.5625 C-199.89478929 120.86156054 -207.32677318 112.28681573 -214 101 C-217.06971206 111.133903 -218.02704594 121.4999267 -218.5390625 132.0390625 C-218.58077072 132.89752274 -218.62247894 133.75598297 -218.66545105 134.64045715 C-220.55506342 175.59120374 -220.55506342 175.59120374 -215 216 C-214.75862305 217.11101074 -214.51724609 218.22202148 -214.26855469 219.36669922 C-208.19756325 247.25889571 -198.23579379 273.71552539 -180 296 C-179.39027344 296.79664063 -178.78054688 297.59328125 -178.15234375 298.4140625 C-166.83770817 312.39520455 -147.53036838 320.87849045 -130 323 C-102.94569304 325.01897813 -76.30672123 314.46488818 -55.2265625 297.80859375 C-53.43115657 296.24942544 -51.6865039 294.67540848 -50 293 C-49.34 293.33 -48.68 293.66 -48 294 C-67.4602121 315.86499116 -89.67393947 330.66531487 -117 341 C-117.80550293 341.30679687 -118.61100586 341.61359375 -119.44091797 341.9296875 C-139.80266795 349.49112292 -181.72898207 362.48753535 -202.6953125 355.04296875 C-205.6115379 353.53262515 -208.2800688 351.84195604 -211 350 C-211.54897949 349.6297168 -212.09795898 349.25943359 -212.66357422 348.87792969 C-215.91597664 346.6761654 -219.1427812 344.43948985 -222.36328125 342.19140625 C-227.65245882 338.52200311 -233.04095783 335.0088373 -238.4375 331.5 C-239.43289795 330.85256836 -240.4282959 330.20513672 -241.45385742 329.53808594 C-245.69535393 326.78349685 -249.9408015 324.03522787 -254.1953125 321.30078125 C-262.90508687 315.70132812 -271.56656662 310.0280876 -280.20089722 304.31307983 C-281.49779899 303.45586994 -282.79602172 302.60065428 -284.09573364 301.74771118 C-295.99696696 293.93201352 -307.93829035 285.70957646 -317.9375 275.5 C-318.46907715 274.9622998 -319.0006543 274.42459961 -319.54833984 273.87060547 C-324.17614072 269.05876846 -327.84110571 263.89091098 -331 258 C-331.53560547 257.03126953 -331.53560547 257.03126953 -332.08203125 256.04296875 C-334.28208048 251.59264085 -334.25474702 247.84019345 -334 243 C-328.06760504 242.24267298 -325.08414752 243.74898637 -320.28125 247.203125 C-317.29526047 249.55510305 -314.43270702 252.01612873 -311.62890625 254.58203125 C-307.37321951 258.28662187 -302.13948096 256.92168217 -296.796875 256.7421875 C-292.66793855 257.02254738 -290.42875522 257.71085996 -287 260 C-283.73220301 263.92274991 -283.47769383 267.8802841 -283.3125 272.8125 C-283.27833984 273.50537109 -283.24417969 274.19824219 -283.20898438 274.91210938 C-283.12713656 276.60752849 -283.06187635 278.30373458 -283 280 C-278.02336945 281.6955082 -273.03758604 283.30463802 -267.99609375 284.796875 C-255.62794213 288.46529916 -243.53447222 292.17042361 -232 298 C-231.3385498 298.33080566 -230.67709961 298.66161133 -229.99560547 299.00244141 C-219.87622614 304.14719808 -211.32363672 310.29526798 -203 318 C-202.08154297 318.83917969 -202.08154297 318.83917969 -201.14453125 319.6953125 C-200 321 -200 321 -200 323 C-199.01 322.67 -198.02 322.34 -197 322 C-194.78910055 321.91641042 -192.57573922 321.89268236 -190.36328125 321.90234375 C-189.06455078 321.90556641 -187.76582031 321.90878906 -186.42773438 321.91210938 C-185.05598892 321.92046469 -183.68424413 321.92892963 -182.3125 321.9375 C-180.92903805 321.94251665 -179.54557437 321.94707927 -178.16210938 321.95117188 C-174.77469605 321.96297471 -171.38736967 321.97943981 -168 322 C-168.63687744 321.67427002 -169.27375488 321.34854004 -169.92993164 321.01293945 C-181.69606637 314.98099361 -193.36177889 308.86382946 -204.8125 302.25 C-217.85876975 294.76076501 -231.34592572 287.92847976 -245.8828125 283.8515625 C-248 283 -248 283 -250 280 C-250.85085354 275.75400103 -251.19534683 271.43170266 -251.625 267.125 C-251.69036957 266.47350983 -251.75573914 265.82201965 -251.8230896 265.15078735 C-257.79810123 203.91824674 -246.02311436 143.48291769 -222 87 C-221 86 -221 86 -217.3125 85.6875 C-212.83924944 85.75939153 -210.45586052 87.08171779 -207 90 C-204.81328902 92.46004985 -202.77713756 94.92781361 -200.84765625 97.58984375 C-192.03548961 108.97334169 -177.3996772 115.88429164 -165.20703125 122.94921875 C-162.1820996 124.70505432 -159.1916204 126.48429787 -156.26171875 128.39453125 C-143.6576703 136.60364375 -130.7367487 140.50811976 -116 143 C-114.59814453 143.30744141 -114.59814453 143.30744141 -113.16796875 143.62109375 C-106.32105395 145.04141227 -99.53194352 145.23825448 -92.5625 145.3125 C-91.12185181 145.33896606 -91.12185181 145.33896606 -89.65209961 145.3659668 C-82.81997492 145.36895572 -82.81997492 145.36895572 -77 142 C-74.29017992 137.93526987 -74.37234447 134.76855174 -75 130 C-76.87619357 125.5950238 -79.01962977 123.64003501 -83.3125 121.75 C-85.65170302 120.97233778 -85.65170302 120.97233778 -88 121 C-90.17076964 122.22600148 -91.6491617 123.64837032 -93.390625 125.42578125 C-96.67115084 128.63464512 -100.35044647 128.92421875 -104.75 129.4375 C-112.07878487 129.19973408 -118.18464796 125.07877971 -123.375 120.1875 C-128.73488961 114.42697218 -131.34907099 108.81114806 -132 101 C-131.01 101.33 -130.02 101.66 -129 102 C-126.8783532 102.14554833 -124.75143294 102.22080412 -122.625 102.25 C-121.50351562 102.27578125 -120.38203125 102.3015625 -119.2265625 102.328125 C-115.03808394 101.90217803 -112.46239569 100.56801315 -109.59375 97.4921875 C-109.2328125 96.95851563 -108.871875 96.42484375 -108.5 95.875 C-108.08234375 95.26269531 -107.6646875 94.65039062 -107.234375 94.01953125 C-105.94914729 91.9168011 -104.85942581 89.7623546 -103.75 87.5625 C-100.22067077 81.06986605 -94.91754719 76.72891686 -88.625 73 C-82.24752604 71.24069684 -75.84675651 70.82505266 -69.6875 73.5625 C-65.65605882 75.88161771 -62.53131895 79.10713828 -60 83 C-60 83.66 -60 84.32 -60 85 C-58.783125 85.20625 -57.56625 85.4125 -56.3125 85.625 C-52.68918267 86.57381245 -50.50160127 87.75763592 -48.234375 90.88671875 C-40.9041984 103.43616667 -40.9041984 103.43616667 -41.08203125 108.1953125 C-42.31519902 110.61966786 -43.84261911 111.69960699 -46.0625 113.25 C-46.79597656 113.77078125 -47.52945312 114.2915625 -48.28515625 114.828125 C-48.85105469 115.21484375 -49.41695312 115.6015625 -50 116 C-49.67515625 117.12535156 -49.67515625 117.12535156 -49.34375 118.2734375 C-47.51077628 125.01131312 -46.58327578 131.02372792 -47 138 C-46.34 138 -45.68 138 -45 138 C-44.64808594 137.22076172 -44.64808594 137.22076172 -44.2890625 136.42578125 C-42.91940475 133.8483344 -41.32914651 131.48094659 -39.67504883 129.07885742 C-34.13948703 121.02552461 -29.20218686 112.82592362 -25 104 C-24.6999707 103.37448242 -24.39994141 102.74896484 -24.09082031 102.10449219 C-18.74202387 90.60778794 -16.18270886 78.5322052 -13.63354492 66.18334961 C-11.87242089 57.69706606 -9.8010602 49.41696064 -7.25 41.125 C-3.11711593 27.58748854 -0.80478162 14.15305614 0 0 Z " fill="#F5F5F5" transform="translate(406, 96)"/>
    <path d="M0 0 C9.57 0 19.14 0 29 0 C27.82927663 15.21940383 27.82927663 15.21940383 26.3125 22.0625 C26.13734863 22.86284668 25.96219727 23.66319336 25.78173828 24.48779297 C18.07853156 58.57166283 3.55474529 91.09121826 -16 120 C-16.43554199 120.64646484 -16.87108398 121.29292969 -17.31982422 121.95898438 C-27.6614475 137.17918196 -39.84799971 150.17053509 -53 163 C-53.33 162.34 -53.66 161.68 -54 161 C-53.25 159.12524414 -53.25 159.12524414 -52 156.78515625 C-51.53231201 155.88877441 -51.06462402 154.99239258 -50.58276367 154.06884766 C-49.79929565 152.58070557 -49.79929565 152.58070557 -49 151.0625 C-40.79825841 135.08919105 -33.87823642 118.57653311 -27 102 C-26.59346191 101.0217627 -26.18692383 100.04352539 -25.76806641 99.03564453 C-20.78189569 86.92839927 -16.7480633 74.54071595 -13 62 C-12.70593262 61.0315918 -12.41186523 60.06318359 -12.10888672 59.06542969 C-6.28600036 39.66004871 -3.06160423 19.98453749 0 0 Z " fill="#FBFCFC" transform="translate(250,10)"/>
    <path d="M0 0 C22.44 0 44.88 0 68 0 C70.31 8.58 72.62 17.16 75 26 C48.27 26 21.54 26 -6 26 C-4.25565627 17.27828136 -2.15721922 8.62887689 0 0 Z " fill="#FDFDFD" transform="translate(297,10)"/>
</svg>
